<?xml version="1.0" encoding="UTF-8"?>
<svg id="Capa_1" xmlns="http://www.w3.org/2000/svg" version="1.1" viewBox="0 0 50 50">
  <!-- Generator: Adobe Illustrator 29.5.1, SVG Export Plug-In . SVG Version: 2.1.0 Build 141)  -->
  <defs>
    <style>
      .st0 {
        fill: #fff;
      }
    </style>
  </defs>
  <g>
    <path class="st0" d="M23.77,30.47l-8.22,6.82,6.25-1.21,1.96-5.6h.01Z"/>
    <path class="st0" d="M22.82,36.21l4.56,3.17-2.55-8.89-2.01,5.72Z"/>
    <path class="st0" d="M9.14,34.13l4.62,3.32,8.85-7.34-13.48,4.03h0Z"/>
    <path class="st0" d="M25.81,30.45l2.7,9.38,5.41-1.33-8.1-8.04h-.01Z"/>
    <path class="st0" d="M26.65,29.89l8.36,8.3,5.61-4.16-13.96-4.13h-.01Z"/>
    <path class="st0" d="M24.3,10.18l-15.35,22.87,15.35-4.58V10.18Z"/>
    <path class="st0" d="M25.63,28.46l15.42,4.56-15.42-22.85s0,18.29,0,18.29Z"/>
  </g>
  <g>
    <path class="st0" d="M23.77-19.53l-8.22,6.82,6.25-1.21,1.96-5.6h.01Z"/>
    <path class="st0" d="M22.82-13.79l4.56,3.17-2.55-8.89-2.01,5.72Z"/>
    <path class="st0" d="M9.14-15.87l4.62,3.32,8.85-7.34-13.48,4.03h0Z"/>
    <path class="st0" d="M25.81-19.55l2.7,9.38,5.41-1.33-8.1-8.04h-.01Z"/>
    <path class="st0" d="M26.65-20.11l8.36,8.3,5.61-4.16-13.96-4.13h-.01Z"/>
    <path class="st0" d="M24.3-39.82l-15.35,22.87,15.35-4.58v-18.29Z"/>
    <path class="st0" d="M25.63-21.54l15.42,4.56-15.42-22.85s0,18.29,0,18.29Z"/>
  </g>
</svg>